<svg width="626" height="626" viewBox="0 0 626 626" fill="none" xmlns="http://www.w3.org/2000/svg">
	<path d="M619.415 328.419L618.218 327.506C617.242 326.719 616.266 325.995 615.29 325.27C614.849 324.955 614.439 324.641 614.03 324.294C613.495 323.916 612.928 323.507 612.393 323.098C606.567 318.784 600.805 314.785 595.074 311.101C593.909 310.345 592.776 309.621 591.642 308.928C589.942 307.858 588.241 306.818 586.541 305.748C581.849 302.914 577.126 300.269 572.498 297.813C571.458 297.246 570.388 296.711 569.317 296.175C567.9 295.42 566.483 294.696 565.035 294.003C563.586 293.279 562.169 292.586 560.721 291.925C559.21 291.2 557.73 290.476 556.218 289.815C555.872 289.657 555.526 289.532 555.179 289.374C553.794 288.744 552.408 288.146 551.054 287.579C549.574 286.918 548.063 286.32 546.583 285.721C545.607 285.344 544.599 284.966 543.623 284.556C541.041 283.549 538.49 282.636 535.908 281.722C534.302 281.156 532.697 280.62 531.059 280.085C529.485 279.55 527.848 279.046 526.242 278.574C524.825 278.164 523.408 277.755 522.022 277.346C521.833 277.283 521.676 277.251 521.518 277.188C519.913 276.747 518.338 276.338 516.764 275.929C515.441 275.582 514.119 275.267 512.796 274.953C508.703 273.976 504.672 273.126 500.673 272.434C499.508 272.213 498.343 272.024 497.178 271.835C496.045 271.646 494.911 271.457 493.778 271.331C486.567 270.261 479.545 269.6 472.712 269.316C471.893 269.316 471.106 269.253 470.287 269.222C440.153 268.246 413.798 273.913 392.481 281.565C391.347 281.974 390.182 282.415 389.048 282.825C387.159 283.549 385.333 284.273 383.475 285.06C382.373 285.501 381.302 285.942 380.2 286.414C379.193 286.855 378.185 287.296 377.177 287.768C375.32 288.587 373.462 289.437 371.636 290.35C371.1 290.602 370.565 290.885 370.061 291.137C369.431 291.421 368.802 291.736 368.203 292.051C366.44 292.932 364.708 293.877 362.945 294.821C362 295.325 361.024 295.829 360.079 296.396C355.86 298.757 351.704 301.277 347.61 303.985C346.823 304.488 346.036 304.992 345.249 305.527C345.06 305.653 344.871 305.779 344.682 305.937C343.139 306.944 341.596 308.015 340.084 309.086C339.266 309.652 338.479 310.251 337.691 310.849C336.652 311.668 335.55 312.423 334.511 313.179C333.913 313.62 333.346 314.061 332.779 314.501C331.551 315.446 330.355 316.391 329.158 317.398C328.78 317.682 328.402 317.997 327.993 318.312C326.639 319.414 325.285 320.547 323.931 321.712C323.459 322.059 323.05 322.468 322.609 322.846C321.475 323.822 320.342 324.798 319.239 325.837C318.295 326.687 317.319 327.569 316.374 328.451C315.744 329.017 315.115 329.616 314.516 330.214C313.036 331.599 311.619 332.985 310.234 334.402C308.691 335.945 307.211 337.488 305.7 339.062C305.637 339.125 305.574 339.157 305.542 339.251C304.975 339.818 304.44 340.416 303.905 340.983C300.095 345.076 296.253 349.075 292.349 352.948C286.523 358.774 280.604 364.316 274.558 369.543C273.11 370.771 271.661 371.999 270.213 373.227C267.316 375.651 264.387 378.013 261.459 380.311C259.916 381.508 258.373 382.705 256.83 383.87C255.413 384.909 253.996 385.979 252.579 387.018C250.973 388.183 249.368 389.348 247.73 390.451C246.376 391.427 244.991 392.371 243.605 393.284C242.283 394.198 240.96 395.079 239.606 395.961C237.937 397.063 236.206 398.134 234.537 399.173C182.235 431.542 116.142 426.221 70.0119 385.916C67.178 383.46 64.4385 380.941 61.825 378.422C60.0932 376.753 58.4243 375.116 56.7869 373.447C55.1181 371.81 53.5751 370.141 52.0007 368.503C50.7727 367.212 49.6077 365.921 48.4741 364.662C38.6813 353.799 31.3761 343.974 26.9678 337.645C23.7875 333.048 22.1186 330.277 22.0557 330.183L13.9003 335.032L5.71338 339.912C5.80784 340.07 6.24867 340.825 7.03587 341.991C7.2248 342.305 7.41373 342.652 7.72861 343.061C8.42135 344.195 9.36597 345.58 10.4681 347.217C11.1293 348.194 11.8221 349.201 12.6093 350.335C13.5539 351.626 14.5615 353.043 15.6951 354.554C17.5529 357.136 19.6941 359.939 22.1501 362.993C22.6224 363.623 23.1263 364.221 23.6301 364.851C25.8972 367.716 28.4477 370.739 31.1872 373.856C31.9114 374.675 32.6671 375.525 33.4228 376.375C34.7138 377.824 36.0993 379.335 37.5163 380.847C38.1775 381.539 38.8387 382.264 39.5 382.956C42.8692 386.483 46.4904 390.104 50.3634 393.725C51.0561 394.387 51.7489 395.048 52.4731 395.709C54.1105 397.221 55.8108 398.732 57.5111 400.243C87.0784 426.095 123.856 439.288 160.981 439.288C189.698 439.288 218.635 431.385 244.55 415.326C245.904 414.507 247.226 413.657 248.549 412.807C249.714 412.051 250.848 411.327 251.981 410.571C252.264 410.383 252.516 410.194 252.831 410.005C254.091 409.186 255.319 408.336 256.547 407.486C257.838 406.604 259.129 405.722 260.388 404.809C261.742 403.864 263.128 402.888 264.482 401.912C267.095 399.96 269.709 398.039 272.291 395.992C272.543 395.804 272.826 395.615 273.078 395.394C274.621 394.166 276.164 392.938 277.707 391.71C279.25 390.451 280.793 389.191 282.336 387.9C283.847 386.609 285.39 385.318 286.901 383.996C289.672 381.602 292.443 379.115 295.183 376.596C297.702 374.297 300.158 371.967 302.614 369.574C303.747 368.472 304.881 367.37 305.983 366.268C306.077 366.173 306.203 366.079 306.298 365.953C310.202 362.048 314.075 358.018 317.885 353.893C318.389 353.358 318.893 352.759 319.46 352.224H319.491C319.964 351.657 320.467 351.122 321.003 350.587C321.601 349.925 322.262 349.264 322.892 348.634C323.648 347.847 324.404 347.06 325.191 346.336C326.041 345.486 326.891 344.667 327.741 343.88C328.056 343.565 328.34 343.281 328.654 342.998C329.945 341.77 331.268 340.542 332.622 339.345C334.133 337.991 335.676 336.638 337.219 335.378C337.251 335.347 337.251 335.315 337.282 335.315C338.794 333.993 340.368 332.733 341.942 331.473C343.548 330.214 345.123 328.954 346.76 327.789C348.271 326.624 349.783 325.491 351.326 324.389C351.735 324.105 352.176 323.822 352.585 323.539C353.908 322.625 355.23 321.681 356.584 320.799C358.694 319.414 360.835 318.06 362.976 316.737C364.236 315.95 365.495 315.194 366.755 314.501C368.739 313.336 370.754 312.203 372.738 311.164C374.249 310.314 375.729 309.558 377.24 308.802C379.004 307.889 380.767 307.039 382.562 306.22C387.915 303.701 393.394 301.465 398.904 299.482C417.891 292.68 441.287 287.579 468.083 288.272C469.059 288.303 470.036 288.335 471.043 288.366C473.436 288.461 475.861 288.587 478.317 288.807C479.608 288.902 480.899 289.028 482.19 289.154C484.646 289.406 487.133 289.689 489.652 290.035C491.227 290.224 492.801 290.476 494.407 290.76C495.635 290.948 496.832 291.169 498.091 291.389C499.445 291.641 500.768 291.893 502.153 292.177C503.35 292.428 504.609 292.68 505.869 292.964C507.475 293.31 509.112 293.688 510.75 294.129C511.82 294.381 512.891 294.664 513.93 294.947C515.599 295.357 517.299 295.829 518.999 296.364C520.353 296.742 521.707 297.152 523.061 297.592C524.478 298.002 525.895 298.474 527.344 298.978C528.792 299.45 530.241 299.954 531.689 300.489C533.137 300.993 534.586 301.528 536.034 302.095C537.546 302.662 539.057 303.26 540.569 303.89C542.017 304.457 543.434 305.055 544.851 305.685C546.3 306.283 547.748 306.913 549.165 307.574C552.471 309.054 555.809 310.66 559.21 312.36C560.438 312.99 561.666 313.62 562.894 314.281C569.128 317.556 575.457 321.208 581.881 325.27C584.872 327.128 587.832 329.08 590.855 331.127C592.303 332.103 593.752 333.111 595.2 334.15C596.901 335.378 598.588 336.592 600.32 337.852C600.32 337.883 600.5 338.023 600.5 338.023C601.791 338.937 602.263 340.316 604 341.023C605.763 342.816 607.268 343.516 609 344.523L612.5 346.523L616.36 348.257C616.644 347.753 616.927 347.281 617.21 346.777C617.777 345.738 618.344 344.698 618.879 343.628C619.667 342.053 620.422 340.511 621.115 338.936L624.201 332.072L619.446 328.419H619.415Z" fill="#6DD4F5" />
	<path d="M616.317 348.257C616.601 347.753 616.884 347.281 617.168 346.777C616.884 347.281 616.632 347.753 616.349 348.257H616.317Z" fill="#6DD4F5" />
	<path d="M616.356 348.234C603.981 369.803 582.88 389.658 553.501 407.417C523.966 425.271 490.368 434.088 456.802 434.088C416.088 434.119 375.374 421.115 341.807 395.578C328.929 385.754 316.932 375.551 306.257 365.948C301.314 361.445 296.654 357.099 292.308 352.943C285.538 346.456 279.587 340.474 274.612 335.278C260.096 320.227 242.841 308.734 224.703 301.995C140.001 270.602 52.4011 320.983 26.9273 337.64C22.33 340.631 19.748 342.52 19.5905 342.646L13.8597 335.026L8.12891 327.438C12.6947 324.005 121.423 243.428 231.316 284.173C252.13 291.888 271.841 304.987 288.309 322.085C293.158 327.123 298.921 332.948 305.502 339.246C309.847 343.402 314.507 347.779 319.451 352.187C329.653 361.445 341.083 371.112 353.332 380.432C408.404 422.374 484.889 426.656 543.646 391.138C570.694 374.796 589.712 356.91 600.324 337.86L616.356 348.234Z" fill="#D2F7FF" />
	<path fillRule="evenodd" clipRule="evenodd" d="M322.068 209.457C382.116 176.993 454.507 179.858 510.965 216.92L510.996 216.857C546.196 239.986 579.083 272.393 608.893 313.336L624.202 332.068L611.512 330.902L610.005 321.337C607.763 319.795 605.497 318.377 603.262 316.978C600.42 315.2 597.628 313.452 595 311.523C594.377 311.13 593.726 310.64 593.103 310.171C592.529 309.739 591.98 309.325 591.5 309.023C590.763 308.559 590.1 308.179 589.423 307.791C588.539 307.285 587.63 306.764 586.5 306.023C584.744 304.963 582.972 303.996 581.204 303.031C578.247 301.418 575.302 299.81 572.461 297.781C549.853 271.142 525.796 249.384 500.511 232.79C449.941 199.57 385.044 197.019 331.105 226.146C298.767 243.622 272.569 266.324 246.78 290.98C241.931 295.608 237.114 300.332 232.264 305.086C230.219 307.038 228.204 309.02 226.19 311.003L226.187 311.006L220.299 316.8C191.582 344.887 155.591 363.717 118.908 369.794C110.248 371.243 101.715 371.967 93.3394 371.967C77.7213 371.967 62.6701 369.511 48.4375 364.63C34.079 359.686 20.4761 352.287 8.00685 342.494L6.5899 341.329C6.08609 340.51 5.58229 339.691 5.36187 339.251L1.80371 332.166L8.1643 327.411C8.24159 327.355 8.34758 327.278 8.48177 327.18C9.33165 326.558 11.3131 325.11 14.3045 323.097L19.7519 327.537C23.2786 330.308 26.9312 332.859 30.6783 335.189C55.6483 350.712 84.8062 356.223 115.79 351.059C148.632 345.643 181.033 328.639 206.98 303.228L212.333 298.001L212.868 297.466C214.497 295.878 216.12 294.292 217.74 292.711C221.096 289.432 224.437 286.168 227.793 282.919C256.447 255.178 285.133 229.421 322.068 209.457Z" fill="#6DD4F5" />
</svg>
